<svg width="128" height="128" viewBox="0 0 128 128" fill="none" xmlns="http://www.w3.org/2000/svg">
  <rect width="128" height="128" fill="#030303"/>

  <path d="M38 83V42L53 27H104L94 40H59L49 50V73L38 83Z" fill="url(#goldOuter)"/>
  <path d="M51 91V57L66 42H91L80 56H70L60 66V101L51 91Z" fill="url(#goldInner)"/>
  <path d="M70 102V76L83 63H98L87 77H81V91L70 102Z" fill="url(#goldLower)"/>

  <path d="M42 55V79M47 66V87M55 75L63 83M42 55C44.6 55 44.6 50.4 42 50.4C39.4 50.4 39.4 55 42 55ZM47 66C49.6 66 49.6 61.4 47 61.4C44.4 61.4 44.4 66 47 66ZM55 75C57.6 75 57.6 70.4 55 70.4C52.4 70.4 52.4 75 55 75Z" stroke="#765728" stroke-width="2.3" stroke-linecap="round"/>
  <path d="M43 55V80M48 66V88M56 75L65 84" stroke="#FFE6B6" stroke-opacity="0.35" stroke-width="1" stroke-linecap="round"/>

  <path d="M38 83V42L53 27H104L94 40H59L49 50V73L38 83Z" stroke="#FFF0D2" stroke-opacity="0.42" stroke-width="1.2"/>
  <path d="M51 91V57L66 42H91L80 56H70L60 66V101L51 91Z" stroke="#FFF0D2" stroke-opacity="0.28" stroke-width="1"/>

  <defs>
    <linearGradient id="goldOuter" x1="42" y1="27" x2="98" y2="86" gradientUnits="userSpaceOnUse">
      <stop stop-color="#FFF7DE"/>
      <stop offset="0.34" stop-color="#E3C58F"/>
      <stop offset="0.64" stop-color="#9C7143"/>
      <stop offset="1" stop-color="#F6DCA8"/>
    </linearGradient>
    <linearGradient id="goldInner" x1="52" y1="43" x2="91" y2="98" gradientUnits="userSpaceOnUse">
      <stop stop-color="#FFEFC9"/>
      <stop offset="0.46" stop-color="#C19762"/>
      <stop offset="1" stop-color="#F8DFAD"/>
    </linearGradient>
    <linearGradient id="goldLower" x1="71" y1="64" x2="96" y2="100" gradientUnits="userSpaceOnUse">
      <stop stop-color="#FFF0CC"/>
      <stop offset="0.55" stop-color="#C79B64"/>
      <stop offset="1" stop-color="#8D5E35"/>
    </linearGradient>
  </defs>
</svg>
